<svg xmlns="http://www.w3.org/2000/svg" viewBox="0 0 500 500">
    <defs>
        <style>.cls-1{fill:#1d1d1b;}</style>
    </defs>
    <g id="Layer_4" data-name="Layer 4">
        <g id="txt_logo">
            <path class="cls-1"
                d="M102.21,460.86H90.65a5.36,5.36,0,0,1-3.2-.9,4.76,4.76,0,0,1-1.75-2.32l-3.79-11.21H57.45l-3.79,11.21a5,5,0,0,1-1.73,2.23,4.94,4.94,0,0,1-3.13,1H37.15L62,396.55H77.32ZM60.9,436.27H78.46l-5.91-17.61-1.35-4c-.51-1.51-1-3.16-1.52-4.92-.47,1.79-1,3.46-1.46,5s-1,2.85-1.41,4Z" />
            <path class="cls-1"
                d="M139.56,460.86a3.77,3.77,0,0,1-2.14-.57,3.1,3.1,0,0,1-1.22-1.72l-1.06-3.49a27.39,27.39,0,0,1-2.87,2.65,18.1,18.1,0,0,1-3.24,2,17.52,17.52,0,0,1-3.75,1.32,19.27,19.27,0,0,1-4.35.47,14.07,14.07,0,0,1-6.62-1.59,15.38,15.38,0,0,1-5.26-4.59,23.2,23.2,0,0,1-3.46-7.35,35.69,35.69,0,0,1-1.26-9.91,30.88,30.88,0,0,1,1.41-9.51,23.41,23.41,0,0,1,4-7.6,18.64,18.64,0,0,1,6.2-5,17.7,17.7,0,0,1,8-1.81,15.36,15.36,0,0,1,6,1,17.37,17.37,0,0,1,4.44,2.72V394.78H148v66.08Zm-13.86-9.8a11.32,11.32,0,0,0,2.71-.29,9.67,9.67,0,0,0,2.23-.81,9.85,9.85,0,0,0,1.92-1.33,16.69,16.69,0,0,0,1.79-1.85V427.36A9.11,9.11,0,0,0,131,425a10.59,10.59,0,0,0-3.77-.68,8.07,8.07,0,0,0-3.49.75,7.12,7.12,0,0,0-2.76,2.4,12.84,12.84,0,0,0-1.83,4.31,26.79,26.79,0,0,0-.66,6.4,29.19,29.19,0,0,0,.53,6.09,12.45,12.45,0,0,0,1.47,4,5.79,5.79,0,0,0,2.28,2.19A6.54,6.54,0,0,0,125.7,451.06Z" />
            <path class="cls-1"
                d="M201.84,444.22a3.1,3.1,0,0,1,1.06.2,2.86,2.86,0,0,1,1,.68l5.92,6.23a24.58,24.58,0,0,1-9.74,7.65,33.9,33.9,0,0,1-13.83,2.59,32.86,32.86,0,0,1-13.14-2.5,28.3,28.3,0,0,1-9.84-6.88,30.33,30.33,0,0,1-6.2-10.42,38.53,38.53,0,0,1-2.16-13.09,34.46,34.46,0,0,1,2.47-13.22,30.51,30.51,0,0,1,17.52-17.19,37,37,0,0,1,13.64-2.43,34.49,34.49,0,0,1,6.82.64,33.62,33.62,0,0,1,6,1.77,27.59,27.59,0,0,1,5.12,2.69,24.42,24.42,0,0,1,4.15,3.46l-5,6.76a6.44,6.44,0,0,1-1.15,1.12,3,3,0,0,1-1.85.51,3.37,3.37,0,0,1-1.5-.35c-.47-.24-1-.52-1.5-.86l-1.75-1.11a13.89,13.89,0,0,0-2.25-1.1,18,18,0,0,0-3-.86,20.58,20.58,0,0,0-4.09-.35,18.55,18.55,0,0,0-7.41,1.43,16.25,16.25,0,0,0-5.76,4.11,18.78,18.78,0,0,0-3.75,6.46,25.3,25.3,0,0,0-1.35,8.52,26.43,26.43,0,0,0,1.35,8.79,19,19,0,0,0,3.66,6.46,15.63,15.63,0,0,0,5.41,4,16.17,16.17,0,0,0,6.62,1.36,32.14,32.14,0,0,0,3.7-.19,15.5,15.5,0,0,0,3.12-.69,13.78,13.78,0,0,0,2.73-1.26,17.33,17.33,0,0,0,2.63-1.92,5.28,5.28,0,0,1,1.15-.72A2.88,2.88,0,0,1,201.84,444.22Z" />
            <path class="cls-1"
                d="M216.63,460.86V394.78h13.68V419.1a22.55,22.55,0,0,1,5.36-3.42,16.71,16.71,0,0,1,6.91-1.3,16,16,0,0,1,6.64,1.3,13.82,13.82,0,0,1,4.88,3.62,15.51,15.51,0,0,1,3,5.52,22.76,22.76,0,0,1,1,6.95v29.09H244.43V431.77a8,8,0,0,0-1.54-5.23,5.56,5.56,0,0,0-4.55-1.88,9.45,9.45,0,0,0-4.23,1,16.16,16.16,0,0,0-3.8,2.6v32.62Z" />
            <path class="cls-1"
                d="M299.43,460.86a6.43,6.43,0,0,1-2.93-.53,4,4,0,0,1-1.66-2.21l-1-2.51c-1.15,1-2.25,1.82-3.31,2.56a20.73,20.73,0,0,1-3.29,1.87,15.94,15.94,0,0,1-3.62,1.15,22.27,22.27,0,0,1-4.26.38,18.8,18.8,0,0,1-5.69-.82,11.8,11.8,0,0,1-4.35-2.42,10.63,10.63,0,0,1-2.76-4,14.28,14.28,0,0,1-1-5.47,11.41,11.41,0,0,1,1.24-5,12.39,12.39,0,0,1,4.28-4.68,27.39,27.39,0,0,1,8.21-3.52,50.41,50.41,0,0,1,13-1.41v-2c0-2.7-.55-4.66-1.65-5.86a6.1,6.1,0,0,0-4.71-1.81,12.58,12.58,0,0,0-4,.53,17.74,17.74,0,0,0-2.76,1.2c-.81.44-1.59.83-2.36,1.19a6.53,6.53,0,0,1-2.74.53,4.09,4.09,0,0,1-2.4-.69,5,5,0,0,1-1.57-1.7l-2.47-4.28a27.85,27.85,0,0,1,9.2-5.45,32.31,32.31,0,0,1,10.84-1.79,19.74,19.74,0,0,1,7.48,1.35,16.15,16.15,0,0,1,5.65,3.75,16.47,16.47,0,0,1,3.56,5.72,20.61,20.61,0,0,1,1.23,7.24v28.6Zm-15.71-8.34a10.81,10.81,0,0,0,4.63-.93,14.09,14.09,0,0,0,4-3v-6.27a34.67,34.67,0,0,0-6.75.54,16.25,16.25,0,0,0-4.2,1.33,5.1,5.1,0,0,0-2.14,1.83,4.39,4.39,0,0,0-.59,2.22,3.87,3.87,0,0,0,1.28,3.32A6.17,6.17,0,0,0,283.72,452.52Z" />
            <path class="cls-1"
                d="M315.41,460.86V415.09h8.12a6.8,6.8,0,0,1,1.7.17,3,3,0,0,1,1.15.55,2.46,2.46,0,0,1,.71,1,9.25,9.25,0,0,1,.42,1.5l.75,4.28a22.46,22.46,0,0,1,5.65-6.14,11.48,11.48,0,0,1,6.84-2.25,7.89,7.89,0,0,1,5,1.5L344,425.77a1.93,1.93,0,0,1-.7,1.3,2.4,2.4,0,0,1-1.41.38,9.66,9.66,0,0,1-1.77-.2,13.08,13.08,0,0,0-2.56-.2q-5.38,0-8.48,5.74v28.07Z" />
            <path class="cls-1"
                d="M367.94,461.57a16.17,16.17,0,0,1-5.76-.95,11.14,11.14,0,0,1-6.78-6.91,16.31,16.31,0,0,1-.88-5.52V424.53h-3.89a2.6,2.6,0,0,1-1.8-.68,2.56,2.56,0,0,1-.75-2V416.5l7.28-1.41,2.69-11.17a2.71,2.71,0,0,1,3-2.12h7.15v13.37h11.13v9.36H368.2v22.73a4.26,4.26,0,0,0,.78,2.63,2.6,2.6,0,0,0,2.23,1,4,4,0,0,0,1.25-.16,5,5,0,0,0,.89-.35l.7-.35a1.73,1.73,0,0,1,.78-.16,1.6,1.6,0,0,1,1,.29,3.34,3.34,0,0,1,.77.91l4.15,6.48a18.74,18.74,0,0,1-6,3A23.44,23.44,0,0,1,367.94,461.57Z" />
            <path class="cls-1"
                d="M406.78,414.38a23.58,23.58,0,0,1,8.32,1.41,18,18,0,0,1,6.49,4.11,18.71,18.71,0,0,1,4.24,6.6,24.29,24.29,0,0,1,1.52,8.85,18.9,18.9,0,0,1-.13,2.51,3.93,3.93,0,0,1-.49,1.55,1.81,1.81,0,0,1-.94.79,4.42,4.42,0,0,1-1.53.22H397.87q.66,5.74,3.48,8.32a10.4,10.4,0,0,0,7.29,2.59,13.07,13.07,0,0,0,4.1-.58,20.56,20.56,0,0,0,3.07-1.28l2.47-1.28a5.16,5.16,0,0,1,2.36-.57,2.85,2.85,0,0,1,2.48,1.19l4,4.9a20.66,20.66,0,0,1-4.57,4,23.26,23.26,0,0,1-5,2.38,27.6,27.6,0,0,1-5.17,1.2,38.83,38.83,0,0,1-4.92.33,25.81,25.81,0,0,1-9-1.57,20.73,20.73,0,0,1-7.37-4.66,22,22,0,0,1-5-7.68A28.71,28.71,0,0,1,384.18,437a24.1,24.1,0,0,1,1.57-8.7,21.12,21.12,0,0,1,11.61-12.09A23.38,23.38,0,0,1,406.78,414.38Zm.27,9.45a8.27,8.27,0,0,0-6.14,2.22,11.64,11.64,0,0,0-2.91,6.43h17.08a12.07,12.07,0,0,0-.42-3.18,7.61,7.61,0,0,0-1.37-2.76,6.9,6.9,0,0,0-2.49-2A8.53,8.53,0,0,0,407.05,423.83Z" />
            <path class="cls-1"
                d="M435.21,460.86V415.09h8.12a6.86,6.86,0,0,1,1.7.17,3,3,0,0,1,1.15.55,2.35,2.35,0,0,1,.7,1,7.58,7.58,0,0,1,.42,1.5l.75,4.28a22.61,22.61,0,0,1,5.65-6.14,11.49,11.49,0,0,1,6.85-2.25,7.89,7.89,0,0,1,5,1.5l-1.77,10.07a2,2,0,0,1-.7,1.3,2.43,2.43,0,0,1-1.42.38,9.47,9.47,0,0,1-1.76-.2,13.08,13.08,0,0,0-2.56-.2q-5.39,0-8.48,5.74v28.07Z" />
        </g>
        <g id="img_logo">
            <circle class="cls-1" cx="92.77" cy="92.88" r="53.74" />
            <circle class="cls-1" cx="92.77" cy="307.83" r="53.74" />
            <circle class="cls-1" cx="93.79" cy="200.35" r="53.74" />
            <circle class="cls-1" cx="200.24" cy="307.83" r="53.74" />
            <circle class="cls-1" cx="201.27" cy="200.35" r="53.74" />
            <circle class="cls-1" cx="307.72" cy="307.83" r="53.74" />
            <circle class="cls-1" cx="414.15" cy="307.83" r="53.74" />
            <circle class="cls-1" cx="414.15" cy="200.35" r="53.74" />
        </g>
    </g>
</svg>